# xmcd
#
# Track frame offsets: 
#        150
#        14287
#        27165
#        37284
#        52884
#        64786
#        78862
#        91063
#        104046
#        118404
#        130880
#        145198
#        160132
#        172975
#        185572
#
# Disc length: 2644 seconds
#
# Revision: 0
# Processed by: cddbd v1.5.2PL0 Copyright (c) Steve Scherf et al.
# Submitted via: ExactAudioCopy v1.1
#
DISCID=c90a520f
DTITLE=Various Artist - Various ‎– Simply Blues
DYEAR=2012
DGENRE=Blues
TTITLE0=Muddy Waters - Rollin' Stone
TTITLE1=Muddy Waters - Hoochie Coochie Man
TTITLE2=John Lee Hooker - Dimples
TTITLE3=John Lee Hooker - Goin' Home Blues
TTITLE4=Otis Rush - All Your Love (I Miss Loving)
TTITLE5=Howlin' Wolf - Smokestack Lightning
TTITLE6=Howlin' Wolf - How Many More Years
TTITLE7=Big Maceo - Worried Life Blues
TTITLE8=Lowell Fulson - Reconsiderer Baby
TTITLE9=Earl Hooker - Blue Guitar
TTITLE10=Elmore James - Dust My Broom
TTITLE11=Elmore James - Whose Muddy Shoes
TTITLE12=Billy Boy Arnold - I Was Fooled
TTITLE13=Lightnin' Hopkins - Life I Used To Live
TTITLE14=Alberta Hunter - Nobody Knows The Way I Feel Dis Morning
EXTD=
EXTT0=
EXTT1=
EXTT2=
EXTT3=
EXTT4=
EXTT5=
EXTT6=
EXTT7=
EXTT8=
EXTT9=
EXTT10=
EXTT11=
EXTT12=
EXTT13=
EXTT14=
PLAYORDER=
